<svg id="Apogee" xmlns="http://www.w3.org/2000/svg" viewBox="-3096.668 1920.295 1375.062 336.286">
  <defs>
    <style>
      .cls-1 {
        fill: #fff;
      }
    </style>
  </defs>
  <g id="Group_38" data-name="Group 38" transform="translate(-7126.258 289.295)">
    <rect id="Rectangle_79" data-name="Rectangle 79" class="cls-1" width="44.479" height="47.259" transform="translate(4346.394 1635)"/>
    <rect id="Rectangle_80" data-name="Rectangle 80" class="cls-1" width="44.479" height="47.259" transform="translate(4346.394 1689.672)"/>
    <rect id="Rectangle_81" data-name="Rectangle 81" class="cls-1" width="44.479" height="47.259" transform="translate(4098.22 1743.417)"/>
    <rect id="Rectangle_82" data-name="Rectangle 82" class="cls-1" width="44.479" height="47.259" transform="translate(4029.59 1851.834)"/>
    <rect id="Rectangle_83" data-name="Rectangle 83" class="cls-1" width="44.479" height="47.259" transform="translate(4346.394 1851.834)"/>
    <rect id="Rectangle_84" data-name="Rectangle 84" class="cls-1" width="44.479" height="47.259" transform="translate(4346.394 1906.506)"/>
    <rect id="Rectangle_85" data-name="Rectangle 85" class="cls-1" width="114.904" height="47.259" transform="translate(4153.653 1743.417)"/>
    <rect id="Rectangle_86" data-name="Rectangle 86" class="cls-1" width="113.05" height="47.259" transform="translate(4277.823 1744.344)"/>
    <rect id="Rectangle_87" data-name="Rectangle 87" class="cls-1" width="113.05" height="47.259" transform="translate(4277.823 1797.162)"/>
    <rect id="Rectangle_88" data-name="Rectangle 88" class="cls-1" width="114.959" height="47.259" transform="translate(4153.597 1799.016)"/>
    <rect id="Rectangle_89" data-name="Rectangle 89" class="cls-1" width="113.05" height="47.259" transform="translate(4029.702 1799.016)"/>
    <rect id="Rectangle_90" data-name="Rectangle 90" class="cls-1" width="113.05" height="47.259" transform="translate(4093.421 1852.761)"/>
    <rect id="Rectangle_91" data-name="Rectangle 91" class="cls-1" width="113.05" height="47.259" transform="translate(4219.445 1852.761)"/>
    <rect id="Rectangle_92" data-name="Rectangle 92" class="cls-1" width="113.05" height="47.259" transform="translate(4219.445 1906.506)"/>
  </g>
  <g id="Group_39" data-name="Group 39" transform="translate(-2902.038 1121.809)">
    <path id="Path_5" data-name="Path 5" class="cls-1" d="M0-165.039H147.393V26.572H88.436v-73.7H58.957v73.7H0Zm58.957,44.218v29.479H88.436v-29.479Zm162.133,0v29.479h29.479v-29.479Zm0,73.7v73.7H162.133V-165.039H309.526V-47.124Zm162.133,0H412.7v-73.7H383.223ZM324.265-2.906V-165.039H471.659V-2.906ZM471.659,11.833V56.051H324.265V11.833ZM633.792-165.039v44.218H545.356V-17.646h29.479V-47.124H560.095V-91.342h73.7V26.572H486.4V-165.039Zm73.7,117.915h88.436V-2.906H648.531V-165.039H795.924v44.218H707.488v14.739h88.436v44.218H707.488Zm88.436,58.957V56.051H648.531V11.833Zm73.7-58.957h88.436V-2.906H810.664V-165.039H958.057v44.218H869.621v14.739h88.436v44.218H869.621Zm88.436,58.957V56.051H810.664V11.833Z" transform="translate(222.375 963.525)"/>
    <path id="Path_139" data-name="Path 139" class="cls-1" d="M33.394-52.339V-4.633H14.312V-52.339H0V-66.65H47.706v14.312ZM71.558-28.486V-4.633H52.476V-66.65H71.558V-42.8H81.1V-66.65h19.082V-4.633H81.1V-28.486Zm52.476,9.541h28.623V-4.633H104.952V-66.65h47.706v14.312H124.034V-42.8h28.623v14.312H124.034Zm86.252-33.394h-9.541v33.394h9.541v-9.541h19.082V-4.633H181.663V-66.65h47.706V-42.8H210.286ZM248.45-28.486H234.139V-66.65h19.082V-42.8h9.541V-66.65h19.082v38.164H267.533V-4.633H248.45ZM305.7-52.339V-42.8h9.541v-9.541ZM286.615-4.633V-66.65H334.32V-42.8l-7.156,7.156,7.156,7.156V-4.633ZM305.7-18.945h9.541v-9.541H305.7Zm52.476,0H386.8V-4.633H339.091V-66.65H386.8v14.312H358.173V-42.8H386.8v14.312H358.173Zm52.476-33.394V-42.8h9.541v-9.541Zm0,23.853V-4.633H391.567V-66.65h47.706V-42.8l-9.541,7.2,9.541,7.108V-4.633H420.19V-28.486Zm81.1-38.164V-4.633H472.666V-52.339h-9.541V-4.633H444.043V-66.65ZM515.6-18.945h28.623V-4.633H496.519V-66.65h47.706v14.312H515.6V-42.8h28.623v14.312H515.6Zm66.788-33.394V-4.633H563.307V-52.339H549V-66.65H596.7v14.312ZM620.553-66.65V-4.633H601.471V-66.65Zm33.394,14.312h-9.541v33.394h9.541v-9.541h19.082V-4.633H625.324V-66.65h47.706V-42.8H653.947Zm48.087,28.623V-66.65h19.082v38.164l4.771,4.771,4.771-4.771V-66.65H749.74v42.935L725.887.137ZM773.593-66.65V-4.633H754.51V-66.65Zm33.394,14.312h-9.541V-42.8h28.623V-4.633H778.363V-23.715h19.082v4.771h9.541v-9.541H778.363V-66.65h47.706v19.082H806.986ZM849.921-66.65V-4.633H830.839V-66.65Zm23.853,38.164h9.541V-52.339h-9.541ZM854.692-14.174V-66.65H902.4v52.476ZM902.4-9.4V4.908H854.692V-9.4ZM954.874-66.65V-4.633H935.791V-52.339H926.25V-4.633H907.168V-66.65Z" transform="translate(222.375 1129.864)"/>
  </g>
</svg>
